<svg xmlns="http://www.w3.org/2000/svg" width="262" height="90" viewBox="0 0 262 90" fill="none"><path fill-rule="evenodd" clip-rule="evenodd" d="M40.2491 4.07555C38.0142 6.31594 32.358 11.9917 27.6798 16.6886C23.0016 21.3853 17.4958 26.9086 15.4448 28.9626C13.3937 31.0165 9.07982 35.3368 5.85836 38.5632C1.19997 43.2287 0.00106812 44.5021 0.00106812 44.7843C0.00120755 45.0472 0.412135 45.5681 1.58998 46.7979C2.46371 47.7103 3.24861 48.5191 3.33395 48.5951C3.41928 48.6711 3.81641 49.0755 4.21646 49.4937C4.61637 49.9119 5.57278 50.8797 6.34179 51.6445C7.75752 53.0525 8.6226 53.9348 15.7577 61.247C17.9434 63.4869 20.3907 65.9735 21.1961 66.7727C22.0015 67.5719 24.2918 69.898 26.2857 71.9418C28.2795 73.9858 30.7893 76.5505 31.8629 77.6414C32.9366 78.7322 34.6936 80.5312 35.7672 81.639C41.4318 87.4834 44.003 90.0006 44.3075 90C44.69 89.9992 45.317 89.4548 47.4053 87.3105C48.29 86.4019 49.3254 85.3754 49.7059 85.0294C50.0866 84.6835 50.6153 84.1661 50.8812 83.8798C52.3522 82.2952 58.0163 76.7278 58.1574 76.7278C58.2794 76.7278 66.5103 68.6187 67.1829 67.8357C67.3716 67.6162 70.6392 64.3754 71.7218 63.3342C72.3239 62.7551 73.0455 62.037 73.3254 61.7384C73.8273 61.203 77.2174 57.8001 84.845 50.1752C88.9773 46.0445 89.5211 45.4506 89.5211 45.0686C89.5211 44.9369 88.8466 44.1505 88.0221 43.3213C87.1976 42.492 84.578 39.8265 82.2005 37.3977C76.2774 31.3468 74.6952 29.7354 72.5095 27.5278C71.4742 26.4821 68.8714 23.8268 66.7256 21.6273C64.5799 19.4279 62.2896 17.0907 61.636 16.4338C60.9826 15.7767 60.013 14.7968 59.4811 14.2564C58.9495 13.7159 58.4426 13.2736 58.3549 13.2736C58.2673 13.2736 57.6043 12.677 56.8816 11.9479C53.372 8.40675 52.2329 7.25075 48.8156 3.7627C45.643 0.5246 45.0744 0.00217438 44.7219 0.00217438C44.3704 0.00217438 43.7394 0.576718 40.2491 4.07555ZM46.5056 8.84982C47.4028 10.1044 48.2112 11.1931 48.3021 11.2691C48.3929 11.3451 48.6845 11.7184 48.9498 12.0986C49.2152 12.4787 49.4637 12.8209 49.502 12.8589C49.5404 12.8969 49.6345 13.0335 49.7112 13.1625C50.1115 13.8356 51.2064 15.3473 51.2935 15.3473C51.3488 15.3473 51.5132 15.5496 51.6586 15.7966C51.9428 16.2792 53.1142 17.894 53.4561 18.2745C53.5704 18.4018 53.7413 18.6507 53.8354 18.8275C53.9296 19.0043 54.4564 19.74 55.006 20.4624C55.5555 21.1847 56.2459 22.1178 56.5399 22.536C56.8342 22.9542 57.128 23.3171 57.1928 23.3424C57.2576 23.3678 57.3106 23.4488 57.3106 23.5227C57.3106 23.735 58.0601 24.6097 58.2421 24.6097C58.4076 24.6097 59.4919 25.9923 61.3322 28.5497C61.8792 29.31 62.4187 30.0565 62.5308 30.2086C63.3008 31.2521 63.8937 32.0642 64.1455 32.4205C64.3069 32.6486 64.937 33.5028 65.5459 34.3187C66.1548 35.1345 66.6531 35.8655 66.6531 35.9431C66.6531 36.0205 66.7 36.0844 66.7576 36.0849C66.8152 36.0855 67.0185 36.3187 67.2096 36.6034C67.4006 36.888 67.5893 37.1519 67.6287 37.1899C67.7107 37.2687 68.0875 37.7743 69.9466 40.3004C70.6741 41.2889 71.4212 42.3153 71.6071 42.5815C71.7929 42.8476 72.2686 43.5165 72.664 44.0681L73.3832 45.0711L72.9876 45.658C72.7701 45.9808 72.3697 46.5213 72.0976 46.8589C71.8257 47.1966 71.509 47.6119 71.394 47.7819C70.4572 49.1665 69.7161 50.1633 68.991 51.0144C68.8939 51.1284 68.3817 51.8438 67.8529 52.6042C67.3242 53.3645 66.6967 54.2064 66.4585 54.475C66.2204 54.7437 65.9164 55.1169 65.7828 55.3045C65.0191 56.3777 63.9977 57.7756 63.4789 58.458C63.1519 58.8881 62.7266 59.4577 62.5336 59.7238C62.3408 59.9899 62.0436 60.3959 61.8732 60.626C61.7028 60.8561 61.3146 61.3849 61.0104 61.801C60.7061 62.2173 60.419 62.5889 60.3724 62.6269C60.3259 62.6649 60.0238 63.0842 59.7013 63.5587C59.2041 64.29 58.7287 64.8222 57.7713 65.7194C57.6097 65.8708 53.8278 70.8679 53.4063 71.4869C53.2913 71.6558 53.0873 71.8915 52.9531 72.0107C52.819 72.1298 52.7091 72.2791 52.7091 72.3426C52.7091 72.4709 51.7471 73.7955 50.7001 75.109C50.3237 75.5812 49.7525 76.3739 49.4306 76.8707C49.1088 77.3674 48.7482 77.8702 48.6293 77.9881C48.5103 78.106 47.9966 78.7571 47.4877 79.4351C46.9787 80.113 46.3927 80.8855 46.1856 81.1517C45.9784 81.4178 45.573 81.9857 45.2847 82.4137C44.4308 83.6814 44.4922 83.6875 43.4055 82.2308C42.8775 81.5233 42.2951 80.7266 42.1112 80.4604C41.9271 80.1943 41.7393 79.9455 41.6937 79.9075C41.4738 79.7242 40.2882 78.0998 40.1417 77.781C40.0503 77.5819 39.9227 77.4191 39.8583 77.4191C39.794 77.4191 39.7413 77.3334 39.7413 77.2286C39.7413 77.1239 39.6377 76.9529 39.5111 76.8487C39.3844 76.7446 38.9295 76.1695 38.5001 75.571C38.0706 74.9724 37.5625 74.2748 37.3708 74.021C37.1791 73.7671 36.587 72.9503 36.0551 72.2059C35.5231 71.4616 35.0484 70.8213 35.0001 70.7833C34.9518 70.7453 34.7001 70.4032 34.4408 70.023C34.1815 69.6428 33.872 69.256 33.7528 69.1634C33.6337 69.0708 33.599 68.992 33.6757 68.9884C33.7611 68.9845 33.7577 68.9426 33.6665 68.8804C33.5847 68.8245 33.3064 68.4677 33.0482 68.0876C32.7899 67.7074 32.5406 67.3652 32.4942 67.3272C32.4479 67.2892 32.1545 66.8828 31.8423 66.4241C31.5301 65.9655 30.8266 65.0365 30.2791 64.3598C29.7313 63.6831 29.2833 63.0727 29.2833 63.0036C29.2833 62.878 28.5799 61.9138 27.8541 61.045C27.6432 60.7924 27.4706 60.5302 27.4706 60.462C27.4706 60.394 27.3507 60.2364 27.204 60.1118C27.0573 59.9874 26.6066 59.3981 26.2026 58.8024C25.7983 58.2067 25.181 57.3431 24.8307 56.8833C24.4803 56.4235 23.8487 55.5622 23.4269 54.9694C23.0051 54.3766 22.467 53.6641 22.2312 53.3861C21.9952 53.1081 21.4544 52.3519 21.0292 51.7056C20.6039 51.0593 20.1381 50.4061 19.9939 50.2539C19.5673 49.8039 18.9648 48.9693 18.9648 48.8286C18.9648 48.7568 18.8625 48.6139 18.7374 48.5109C18.6123 48.4081 18.2382 47.9183 17.9062 47.4226C17.5742 46.9269 17.1432 46.3407 16.9484 46.1197C16.7537 45.8988 16.5943 45.6656 16.5943 45.6013C16.5943 45.5371 16.4656 45.357 16.3084 45.2011L16.0224 44.9175L16.6793 43.9914C17.0406 43.482 17.5324 42.8165 17.7721 42.5123C18.0119 42.2082 18.3262 41.7744 18.4706 41.5482C18.6151 41.3221 18.8541 41.011 19.0018 40.857C19.1493 40.703 19.4623 40.297 19.6973 39.9548C19.9322 39.6127 20.4597 38.9162 20.8693 38.4069C21.2789 37.8977 21.6142 37.4533 21.6142 37.419C21.6142 37.3849 22.3077 36.4329 23.1554 35.3034C24.003 34.174 24.8657 33.0107 25.0727 32.7183C25.2795 32.4258 25.6095 31.9903 25.806 31.7506C26.4632 30.9486 28.4281 28.2761 29.6765 26.4865C30.0845 25.9016 30.5056 25.3898 30.6125 25.3492C30.7191 25.3087 30.8455 25.1538 30.893 25.0053C30.9406 24.8569 31.104 24.5982 31.2564 24.4305C31.4087 24.263 32.0706 23.3793 32.7273 22.4669C33.384 21.5545 34.0745 20.6213 34.2617 20.3932C34.5711 20.0161 36.2657 17.7183 37.2015 16.4068C37.4097 16.1151 37.9548 15.3997 38.413 14.817C38.8712 14.2343 39.4434 13.4677 39.6847 13.1136C39.926 12.7594 40.5866 11.8685 41.1524 11.1339C41.7184 10.3994 42.4011 9.5004 42.6695 9.13626C42.9379 8.77226 43.4555 8.0798 43.8199 7.5976C44.1842 7.1154 44.4822 6.66652 44.4822 6.60017C44.4822 6.18875 45.0701 6.84237 46.5056 8.84982ZM171.442 19.7935C170.789 20.1501 170.24 20.8233 170.053 21.4971C169.947 21.8784 169.818 22.9355 169.767 23.8462C169.716 24.7568 169.615 25.6122 169.542 25.747C169.373 26.06 168.965 26.0615 168.696 25.7502C168.43 25.4429 167.888 24.3087 167.881 24.0476C167.875 23.7686 167.187 22.8193 166.77 22.5151C166.573 22.371 166.057 22.223 165.581 22.1744C164.439 22.0574 164.331 22.195 164.451 23.6106C164.799 27.6999 164.887 28.0887 165.617 28.7736C166.567 29.6645 167.091 29.884 168.911 30.1529C170.984 30.4594 172.768 30.4775 174.792 30.2123C176.439 29.9965 177.133 29.7997 177.96 29.3139C178.704 28.8766 179.328 27.5409 179.477 26.064C179.539 25.4542 179.654 24.5317 179.734 24.014C179.986 22.3786 179.78 22.1234 178.319 22.2619C177.542 22.3356 177.426 22.3904 176.999 22.8887C176.742 23.1889 176.337 23.9323 176.099 24.5406C175.586 25.8537 175.486 25.9921 175.047 25.9921C174.573 25.9921 174.489 25.6613 174.408 23.4971C174.334 21.5115 174.272 21.2991 173.533 20.4852C172.817 19.6959 172.072 19.4494 171.442 19.7935ZM43.6516 20.5413C42.9323 20.949 42.1629 21.6934 41.9871 22.1517C41.8061 22.6239 41.5686 24.7329 41.4848 26.6122C41.3984 28.5537 41.2535 28.8199 40.2834 28.8199C39.5667 28.8199 39.374 28.5989 38.7586 27.0713C37.7274 24.5113 36.9781 23.8375 34.9945 23.6858C33.3319 23.5588 33.295 23.6576 33.8281 26.8051C33.936 27.4425 34.0245 28.3756 34.0248 28.8788C34.0255 29.9382 34.472 31.3574 35.0763 32.2221C35.5225 32.8604 36.6608 33.566 37.7891 33.9036C40.1026 34.5959 45.971 34.7854 49.5349 34.2828C52.3745 33.8824 53.4812 33.3231 54.4503 31.7984C54.9686 30.9832 55.1389 30.3547 55.2748 28.757C55.3233 28.1868 55.4686 26.9301 55.5978 25.9643C55.8242 24.2702 55.8234 24.1985 55.5738 23.9252C55.269 23.5912 54.6775 23.5654 53.5363 23.8359C51.8043 24.2467 51.3418 24.7991 50.2028 27.8172C49.8823 28.6666 49.5185 28.9401 48.8009 28.8712C48.0337 28.7977 47.8735 28.3449 47.7816 25.9921C47.6533 22.7074 47.4003 21.8784 46.2488 20.9732C45.1298 20.0935 44.5979 20.005 43.6516 20.5413ZM26.0065 24.5772C25.9298 24.6331 25.8043 24.7808 25.7276 24.9055C25.4386 25.3757 24.4445 26.7402 23.6868 27.7071C23.2545 28.2585 22.8037 28.8915 22.6851 29.1136C22.5663 29.3357 22.308 29.6857 22.1113 29.8915C21.9145 30.0973 21.7536 30.3229 21.7536 30.393C21.7536 30.4631 21.6535 30.6027 21.5311 30.7035C21.2424 30.941 19.9785 32.6223 19.3571 33.5956C19.09 34.0138 18.7584 34.4483 18.6204 34.5612C18.4822 34.6742 18.2132 35.0115 18.0226 35.3108C17.832 35.6101 17.6195 35.922 17.5502 36.0041C17.2008 36.4176 15.273 39.0141 14.8221 39.6783C14.5382 40.0965 14.0522 40.7497 13.742 41.1299C13.4319 41.5101 13.1153 41.92 13.0386 42.0408C12.962 42.1616 12.5071 42.7792 12.0277 43.4131C11.5485 44.0471 11.1562 44.6669 11.1562 44.7903C11.1562 45.0829 12.0596 46.4707 13.3025 48.0872C13.8475 48.7964 14.3563 49.4804 14.433 49.6073C14.5097 49.7342 14.8079 50.127 15.0954 50.4799C15.383 50.833 15.6183 51.1543 15.6183 51.1938C15.6183 51.2761 17.158 53.3792 17.9484 54.3768C18.239 54.7435 18.665 55.3125 18.8951 55.6416C19.1252 55.9704 19.6743 56.7416 20.1152 57.3551C20.5562 57.9686 20.917 58.5233 20.917 58.5875C20.917 58.6518 21.1098 58.8871 21.3453 59.1104C21.581 59.3337 21.9063 59.7498 22.0682 60.0348C22.2302 60.32 22.4123 60.5532 22.4728 60.5532C22.5335 60.5532 22.6876 60.7554 22.8152 61.0025C22.9427 61.2497 23.211 61.6476 23.4114 61.8869C24.0422 62.6406 25.6921 64.9892 25.6322 65.0485C25.5528 65.1273 23.3531 62.9605 19.7317 59.236C18.0445 57.5008 16.1307 55.5428 15.4788 54.8851C9.86236 49.2175 5.78138 45.0242 5.74959 44.8881C5.72854 44.7979 7.91272 42.5158 10.6033 39.8166C13.2941 37.1174 17.8291 32.5627 20.6813 29.6954C23.5334 26.828 25.9298 24.4804 26.0065 24.4788C26.0995 24.4767 26.0995 24.5096 26.0065 24.5772ZM65.2934 26.2341C68.5335 29.5265 71.8336 32.8846 73.6146 34.7015C74.6208 35.728 76.9642 38.113 78.8222 40.0014C83.7367 44.9963 83.6647 44.9197 83.6647 45.1431C83.6647 45.2561 81.9366 47.0743 79.8246 49.1836C77.7125 51.2931 73.3672 55.6504 70.1685 58.8667C64.9169 64.1468 63.1713 65.8204 63.5169 65.244C63.5822 65.1352 64.1128 64.4241 64.6962 63.6637C65.2794 62.9034 66.2971 61.5348 66.9576 60.6224C67.6181 59.71 68.324 58.7768 68.5263 58.5487C68.7286 58.3206 69.1105 57.8229 69.3749 57.4427C69.6393 57.0626 70.0293 56.5219 70.2414 56.2413C70.4535 55.9608 70.8438 55.432 71.1087 55.0662C71.3736 54.7005 72.0325 53.8158 72.5728 53.0999C73.1131 52.3841 73.942 51.2414 74.4147 50.5605C74.8874 49.8798 75.4835 49.0758 75.7393 48.774C76.7667 47.5624 76.9587 47.3138 77.5801 46.392C77.9357 45.8646 78.2265 45.2953 78.2265 45.1268C78.2265 44.7866 76.6175 42.3207 76.3222 42.2083C76.2192 42.1692 76.1349 42.059 76.1349 41.9634C76.1349 41.8678 75.9873 41.6413 75.8068 41.4597C75.6264 41.2784 75.3983 40.9782 75.3 40.793C75.2017 40.6077 75.0643 40.39 74.9947 40.3091C74.8181 40.1036 73.3064 37.9888 73.137 37.71C73.0603 37.5838 72.4886 36.8398 71.8664 36.0565C71.2444 35.2733 70.6483 34.4784 70.5417 34.2901C70.3097 33.8798 69.9811 33.4219 67.908 30.6226C67.3328 29.8458 66.5171 28.7327 66.0953 28.1487C64.9039 26.4996 63.9645 25.2495 63.7662 25.0492C63.5961 24.8773 63.5194 24.6097 63.6401 24.6097C63.6702 24.6097 64.4141 25.3406 65.2934 26.2341ZM104.79 31.0516C104.003 31.2621 102.044 32.2033 101.084 32.8321C99.6252 33.7879 98.7878 34.7661 97.6995 36.7868L96.9114 38.2501V42.6987C96.9114 45.1455 96.9634 47.2554 97.0268 47.3874C97.5488 48.4718 98.1089 49.575 98.1668 49.6319C98.2052 49.67 98.4113 49.9563 98.6247 50.2683C99.3795 51.3723 102.008 53.1663 103.391 53.5209C103.7 53.6002 104.668 53.7645 105.541 53.8861L107.13 54.1072L107.389 53.7896C107.716 53.3889 107.743 52.1776 107.434 51.7404C107.316 51.5737 106.971 51.3633 106.667 51.273C106.363 51.1828 106.114 51.0254 106.114 50.9234C106.114 50.8214 106.058 50.7379 105.989 50.7379C105.92 50.7379 105.787 50.423 105.694 50.0381C105.566 49.5107 105.548 47.7309 105.618 42.8148C105.709 36.487 105.757 35.2125 105.925 34.6324C106.04 34.2391 106.822 33.4573 107.102 33.4573C107.754 33.4573 108.066 31.6592 107.509 31.1072C107.285 30.8849 107.059 30.834 106.358 30.8478C105.879 30.8572 105.173 30.949 104.79 31.0516ZM130.531 31.0703C130.321 31.2407 130.209 31.5233 130.159 32.0058C130.082 32.7643 130.165 32.9262 130.902 33.4388C131.818 34.0764 131.786 33.7247 131.742 42.6662L131.701 50.7624L130.935 51.4292C130.174 52.0902 130.168 52.1028 130.168 52.8796C130.168 53.7997 130.448 54.1217 131.144 54.0002C131.374 53.9599 132.095 53.8582 132.747 53.774C134.038 53.6074 134.799 53.2831 136.448 52.1961C137.449 51.5368 137.875 51.1178 138.637 50.0467C138.88 49.7045 139.163 49.339 139.267 49.2345C139.371 49.13 139.582 48.7567 139.737 48.405C139.892 48.0533 140.134 47.5129 140.273 47.2039C140.806 46.0256 141.002 44.5044 140.931 42.1196C140.894 40.8909 140.8 39.5746 140.722 39.1945C140.541 38.3094 139.638 36.4322 138.908 35.4244C138.73 35.1789 138.636 34.9771 138.699 34.9759C138.762 34.9747 138.748 34.9281 138.67 34.8723C138.591 34.8164 138.321 34.509 138.07 34.1892C137.622 33.6177 136.077 32.5019 135.118 32.0568C133.277 31.2021 132.854 31.0665 131.546 30.9109C130.981 30.8437 130.769 30.877 130.531 31.0703ZM108.555 31.2109C108.354 31.7 108.347 32.8167 108.542 33.1127C108.649 33.2736 109.009 33.4859 109.342 33.5844C110.173 33.8298 110.854 34.3545 111.705 35.4038C112.474 36.3536 112.774 36.9434 113.307 38.5566C113.747 39.8864 114.146 40.2534 115.094 40.2003C115.658 40.1688 115.829 40.0939 116.07 39.7722C116.349 39.4017 116.365 39.193 116.404 35.6083L116.445 31.8342L116.078 31.4016C115.498 30.7179 114.458 30.8084 113.71 31.6078C113.351 31.9919 113.037 32.0177 112.321 31.7211C111.553 31.4029 109.745 30.9735 109.162 30.971C108.808 30.9696 108.624 31.0421 108.555 31.2109ZM126.821 31.2388C126.284 31.379 125.248 31.7761 124.518 32.1216C121.965 33.3304 120.5 35.1082 119.201 38.5724C118.765 39.7361 118.761 39.7736 118.747 42.4432C118.734 45.0502 118.747 45.1799 119.134 46.3832C119.355 47.0675 119.694 47.9073 119.888 48.2495C120.082 48.5916 120.311 48.996 120.397 49.1481C121.05 50.3038 121.912 51.2457 123.232 52.2478C124.025 52.8494 126.018 53.6414 127.156 53.8066C127.662 53.8802 128.264 53.9673 128.494 54.0002C129.216 54.1039 129.476 53.7686 129.438 52.7804C129.419 52.2714 129.335 51.8918 129.229 51.8307C128.516 51.4204 128.173 51.0405 128.027 50.499C127.916 50.0851 127.867 47.6046 127.867 42.3376C127.867 33.7535 127.81 34.2015 129.017 33.3196C129.646 32.8603 129.68 32.8025 129.68 32.1788C129.68 30.9497 128.905 30.6951 126.821 31.2388ZM198.013 31.3917C197.442 31.5399 196.721 31.7813 196.41 31.9281C196.098 32.0749 195.498 32.3445 195.076 32.5269C194.654 32.7094 193.87 33.233 193.333 33.6901C192.797 34.1474 192.291 34.4986 192.21 34.4707C191.86 34.35 190.359 36.5315 189.874 37.8646C189.316 39.3977 189.233 39.7072 189.068 40.854C188.889 42.099 188.978 45.3553 189.226 46.6597C189.445 47.8082 190.622 50.1223 191.393 50.9195C191.737 51.2759 192.084 51.5674 192.163 51.5674C192.243 51.5674 192.601 51.8082 192.96 52.1024C194.315 53.2137 195.749 53.7924 197.993 54.133C199.713 54.3942 200.005 54.3851 200.301 54.0607C200.498 53.8449 200.537 53.6188 200.489 52.9599C200.419 52.0023 200.163 51.6365 199.474 51.5083C198.943 51.4095 198.786 51.2531 198.63 50.6688C198.57 50.4407 198.536 46.9763 198.555 42.9699C198.595 34.6522 198.586 34.7245 199.703 33.978C200.537 33.4207 200.627 33.2804 200.633 32.5214C200.64 31.5749 200.282 31.1041 199.563 31.1148C199.281 31.1189 198.584 31.2436 198.013 31.3917ZM201.429 31.5527C201.103 32.0149 201.142 33.1922 201.496 33.5694C201.653 33.7359 201.85 33.8721 201.936 33.8721C202.021 33.8721 202.428 34.0359 202.841 34.2361C204.33 34.9585 205.704 36.9546 206.353 39.341C206.585 40.1911 207.062 40.561 207.927 40.561C208.497 40.561 208.691 40.4989 208.892 40.2519C209.27 39.7892 209.324 39.1053 209.275 35.346L209.23 31.9123L208.838 31.5789C208.567 31.3474 208.278 31.2454 207.893 31.2454C207.425 31.2454 207.259 31.3313 206.826 31.7984C206.544 32.1025 206.187 32.3514 206.033 32.3514C205.783 32.3514 204.985 32.1079 204.21 31.7948C202.683 31.1781 201.751 31.0969 201.429 31.5527ZM223.151 31.4088C222.805 31.5749 222.69 31.901 222.688 32.7295C222.686 33.2683 222.74 33.3563 223.369 33.8354C223.745 34.1217 224.114 34.4812 224.188 34.6342C224.365 35.0006 224.25 49.864 224.061 50.8387C223.94 51.4669 223.846 51.6119 223.343 51.9468C222.637 52.4171 222.428 52.9817 222.668 53.7742C222.769 54.11 222.94 54.3498 223.118 54.4058C223.605 54.559 227.184 53.7806 227.37 53.4811C227.41 53.4169 227.555 53.3645 227.693 53.3645C228.163 53.3645 230.796 51.2596 231.065 50.6688C231.214 50.3403 231.43 49.9933 231.846 49.4091C232.271 48.812 233.134 46.9566 233.237 46.4161C233.284 46.1699 233.379 45.859 233.448 45.7253C233.517 45.5915 233.576 44.4095 233.58 43.0986C233.586 41.0373 233.546 40.5844 233.287 39.7475C232.954 38.675 232.693 38.0204 232.351 37.3973C232.104 36.9484 231.45 35.7509 231.033 34.9834C230.89 34.7202 230.773 34.5544 230.773 34.615C230.773 34.6755 230.412 34.3735 229.971 33.9437C228.439 32.4501 224.236 30.8882 223.151 31.4088ZM143.19 31.5906C142.23 32.1079 142.228 33.1012 143.186 33.5859C144.265 34.1321 144.188 33.3947 144.148 42.7286L144.112 51.077L143.433 51.4326C142.639 51.8488 142.369 52.168 142.369 52.6903C142.369 53.1811 142.957 53.6047 143.856 53.7613C144.227 53.8259 146.313 53.8683 148.492 53.8557L152.454 53.8328L152.675 53.5031C152.871 53.2107 152.901 51.9643 152.939 42.5213L152.982 31.8695L152.68 31.6266C152.405 31.4061 151.971 31.3842 147.966 31.3892C144.431 31.3936 143.482 31.4337 143.19 31.5906ZM167.259 31.5121C166.386 31.7208 165.934 32.137 165.934 32.7311C165.934 33.0145 166.615 33.7338 166.883 33.7338C166.974 33.7338 167.049 33.796 167.049 33.8721C167.049 33.9481 167.141 34.0103 167.254 34.0103C167.366 34.0103 167.523 34.1306 167.602 34.2777C167.697 34.4534 167.747 37.3492 167.747 42.7197C167.747 48.0902 167.697 50.986 167.602 51.1617C167.517 51.32 167.311 51.4291 167.098 51.4291C166.664 51.4291 165.794 52.3067 165.794 52.7453C165.794 53.1526 166.309 53.5751 167.012 53.7446C168.003 53.9835 176.203 54.0974 176.974 53.8829C177.533 53.7276 178.205 53.1093 178.205 52.7503C178.205 52.352 177.632 51.7341 177.088 51.5463C176.847 51.463 176.638 51.2754 176.596 51.1042C176.557 50.9408 176.541 47.0754 176.562 42.5144L176.601 34.2218L177.25 33.9163C177.957 33.5836 178.344 33.1479 178.344 32.6851C178.344 32.3472 177.734 31.6868 177.254 31.5056C176.872 31.3611 167.865 31.3669 167.259 31.5121ZM218.978 31.7106C218.114 31.9116 217.425 32.179 216.816 32.5488C215.493 33.353 214.373 34.2336 213.939 34.8117C213.727 35.0933 213.522 35.3547 213.483 35.3929C213.205 35.6662 211.674 38.7681 211.672 39.0631C211.671 39.2191 211.614 39.4057 211.546 39.4779C211.155 39.8933 210.969 43.6689 211.26 45.2864C211.769 48.122 213.809 51.4507 215.725 52.5732C217.704 53.7324 218.318 53.9757 219.827 54.1991C220.287 54.2673 220.821 54.3598 221.012 54.4048C221.536 54.5276 221.867 54.2044 221.945 53.4943C222.032 52.7069 221.826 52.1904 221.334 51.9587C221.104 51.8508 220.815 51.5176 220.635 51.1526C220.328 50.5341 220.327 50.4859 220.321 42.8856C220.314 34.0768 220.226 34.7105 221.605 33.6778C222.071 33.3292 222.128 33.2194 222.128 32.6757C222.128 32.3399 222.027 31.9118 221.903 31.7244C221.709 31.4311 221.578 31.3859 220.961 31.3996C220.568 31.4083 219.675 31.5483 218.978 31.7106ZM153.768 31.6712C153.583 31.7779 153.524 31.9935 153.524 32.5585C153.524 33.3882 153.783 33.7833 154.602 34.2003C155.562 34.6888 155.541 34.5113 155.587 42.6153C155.635 50.9157 155.67 50.6244 154.552 51.1612C153.664 51.5874 153.524 51.7715 153.524 52.5142C153.524 53.5025 153.789 53.7793 154.736 53.7793C156.868 53.7793 158.435 53.2385 160.268 51.8696C161.193 51.1785 162.727 49.6659 162.727 49.4446C162.727 49.3695 162.813 49.2099 162.919 49.0899C163.134 48.8446 163.946 46.6782 164.14 45.8302C164.532 44.1169 164.662 41.4628 164.411 40.3271C164.341 40.0083 164.209 39.3828 164.119 38.9371C164.029 38.4915 163.618 37.4603 163.207 36.6459C162.581 35.4053 162.319 35.0433 161.596 34.4148C161.121 34.0023 160.66 33.6025 160.573 33.5265C160.486 33.4504 160.316 33.326 160.196 33.25C160.075 33.1739 159.815 32.9981 159.617 32.8593C158.334 31.959 154.587 31.198 153.768 31.6712ZM236.49 31.7542C235.656 31.8392 235.435 31.9189 235.05 32.2723C234.338 32.9269 234.708 33.6158 236.159 34.3345C236.838 34.6713 237.291 35.1923 237.5 35.8766C237.546 36.0287 237.782 36.6508 238.024 37.2591C238.266 37.8673 238.555 38.6914 238.667 39.0904C238.778 39.4895 239.154 40.516 239.502 41.3714C239.851 42.227 240.314 43.4559 240.532 44.1022C240.983 45.4419 241.494 46.7899 241.893 47.6965C242.044 48.0387 242.274 48.6919 242.404 49.1481C242.667 50.0696 243.419 52.0025 244.035 53.338L244.437 54.21L245.016 54.1675C245.743 54.1141 245.977 53.818 246.472 52.3277C246.675 51.7194 246.896 51.1138 246.964 50.9817C247.032 50.8497 247.088 50.6435 247.088 50.5236C247.088 50.3142 248.09 47.2292 248.343 46.6597C248.467 46.3819 249.034 44.7887 249.696 42.858C249.981 42.0256 250.065 41.4625 250.121 40.0027C250.159 39.0025 250.146 37.8325 250.092 37.4026C249.995 36.6284 249.99 36.6215 249.559 36.6636C249.154 36.7032 249.1 36.7756 248.758 37.7429C248.323 38.9731 248.075 39.4594 247.948 39.333C247.896 39.2821 247.851 39.199 247.848 39.1484C247.835 38.979 247.615 38.3707 247.363 37.812C246.95 36.8919 246.084 34.6638 245.941 34.1486C245.697 33.2739 245.019 31.9588 244.735 31.8081C244.475 31.6701 237.746 31.6261 236.49 31.7542ZM251.131 31.9767C250.807 32.1386 250.776 32.2437 250.694 33.4608C250.645 34.1812 250.598 38.5111 250.589 43.083C250.577 49.5524 250.535 51.4257 250.399 51.5324C250.303 51.6079 249.999 51.7417 249.723 51.8299C248.565 52.1991 248.254 53.272 249.135 53.8583C249.753 54.2702 250.448 54.317 255.524 54.2883C259.71 54.2646 260.011 54.2463 260.404 53.9898C260.952 53.6315 261.027 53.5151 261.029 53.0105C261.032 52.5089 260.648 52.058 259.985 51.7832C259.661 51.6491 259.476 51.4628 259.411 51.2038C259.274 50.6623 259.485 34.9842 259.633 34.71C259.7 34.5853 259.932 34.3952 260.149 34.2876C260.855 33.9375 261.171 33.574 261.171 33.1117C261.171 32.5648 260.693 32.096 259.964 31.9283C259.093 31.7279 251.547 31.7691 251.131 31.9767ZM37.58 37.5579C36.5496 37.7961 36.0049 38.0548 35.8573 38.3759C35.6154 38.9024 35.6649 39.4616 35.9897 39.8709C36.2939 40.2544 37.2086 40.7843 37.5664 40.7843C37.6802 40.7843 37.871 40.9225 37.9903 41.0916C38.1828 41.3639 38.2074 42.7673 38.2074 53.4578C38.2074 62.5477 38.1662 65.6068 38.04 65.8815C37.9305 66.1197 37.5457 66.409 36.9281 66.7173C36.0124 67.1745 35.5581 67.6709 35.5581 68.2142C35.5581 68.6282 36.0223 69.3772 36.3793 69.5393C36.9808 69.8123 40.0678 69.9331 45.6674 69.9027C51.5226 69.8709 51.6699 69.8507 52.2844 68.9951C52.5265 68.6581 52.5778 68.4502 52.5089 68.0863C52.4026 67.5249 51.747 66.8304 51.2106 66.7111C50.9995 66.6641 50.6825 66.5166 50.5063 66.3833L50.1858 66.1409L50.1669 58.6123C50.1566 54.4715 50.1595 48.8692 50.1736 46.163L50.1992 41.2426L50.7221 40.9917C52.1463 40.3084 52.2212 40.2509 52.482 39.6407C52.7285 39.0636 52.73 39.0034 52.5096 38.5429C52.3487 38.2067 52.095 37.9757 51.6909 37.7977C51.1488 37.5586 50.6166 37.5379 44.4822 37.5165C40.8394 37.5037 37.7333 37.5224 37.58 37.5579ZM237.533 40.1309C237.484 40.3892 237.433 42.5859 237.42 45.0125C237.397 49.3245 237.389 49.446 237.053 50.3692C236.747 51.2089 236.639 51.3538 236.077 51.6715C235.157 52.1914 234.972 52.3808 234.873 52.9051C234.68 53.9215 235.555 54.1894 239.111 54.2031C241.845 54.2138 242.296 54.0893 242.536 53.2595C242.708 52.6661 242.432 52.2723 241.463 51.7306C240.119 50.9784 240.116 50.967 240.116 47.4137V44.3394L239.481 42.7346C239.132 41.8521 238.762 40.9433 238.658 40.7152C238.555 40.4871 238.447 40.176 238.42 40.0239C238.387 39.843 238.241 39.7327 237.996 39.7045C237.668 39.6669 237.61 39.7202 237.533 40.1309ZM114.539 46.8575C114.11 47.0375 113.502 47.8121 113.405 48.3034C113.302 48.8239 111.581 50.5873 110.855 50.9161C110.587 51.0377 110.068 51.1789 109.703 51.2299C109.338 51.281 108.883 51.4445 108.692 51.5933C108.392 51.8278 108.345 51.9743 108.345 52.6924C108.345 53.7997 108.498 54.057 109.152 54.0508C110.231 54.0405 111.678 53.5802 112.627 52.945C112.964 52.7195 113.278 52.5351 113.324 52.5351C113.577 52.5351 114.416 51.7167 115.173 50.7335C116.49 49.0214 116.74 48.0355 116.049 47.2836C115.639 46.837 115.011 46.6598 114.539 46.8575ZM207.417 47.2417C206.974 47.3508 206.701 47.6617 206.436 48.3599C206.202 48.9753 205.378 50.1007 204.768 50.6375C204.196 51.1409 203.178 51.5674 202.549 51.5674C201.621 51.5674 201.201 51.9778 201.121 52.9654C201.071 53.578 201.112 53.7971 201.327 54.0606L201.596 54.3899L202.889 54.2085C204.534 53.9776 204.833 53.87 205.925 53.1132C207.106 52.2947 207.793 51.5725 208.526 50.3783C209.195 49.2889 209.367 48.732 209.229 48.1065C209.09 47.4807 208.19 47.0513 207.417 47.2417ZM182.484 47.8845C181.271 48.2247 180.157 49.7129 180.157 50.9918C180.157 52.7028 182.061 54.3354 184.051 54.3307C186.423 54.3252 188.471 52.3233 187.975 50.496C187.68 49.4107 186.976 48.4726 186.141 48.0536C185.496 47.7298 183.384 47.6321 182.484 47.8845ZM99.5761 59.6403C98.9921 59.9611 98.8737 60.3687 98.8684 62.0777C98.863 63.8678 98.9783 64.1743 99.7837 64.5079C100.18 64.672 112.175 64.7006 180.445 64.7006C251.434 64.7006 260.691 64.6768 261.081 64.4932C261.767 64.1705 261.917 63.81 261.981 62.3304C262.047 60.8122 261.885 60.142 261.351 59.726L260.994 59.4473L180.452 59.4521C113.865 59.4563 99.8516 59.4888 99.5761 59.6403ZM184.451 73.168C184.406 76.2483 184.361 76.8828 184.153 77.365C183.843 78.0803 183.43 78.3074 182.605 78.2154L181.969 78.1443V78.734C181.969 79.2924 181.994 79.3284 182.432 79.4098C183.485 79.6055 184.56 79.1173 185.105 78.1957C185.592 77.3716 185.728 76.155 185.731 72.6151L185.734 69.5391H185.119H184.503L184.451 73.168ZM187.965 74.3777V79.2162H188.919C189.444 79.2162 190.636 79.2569 191.569 79.3067L193.264 79.3969V78.7537V78.1103H191.242H189.22V76.5205V74.9307H190.963H192.706V74.3777V73.8247L191.277 73.8228C189.087 73.8199 189.22 73.9285 189.22 72.1496V70.6451H191.103H192.985V70.0921V69.5391H190.475H187.965V74.3777ZM215.931 69.7454C214.718 70.1739 214.04 71.0036 214.04 72.0617C214.04 73.385 214.571 73.983 216.735 75.1C218.136 75.8237 218.642 76.3152 218.642 76.955C218.642 77.2203 218.578 77.5562 218.499 77.7015C218.034 78.5637 216.023 78.666 214.626 77.8986L214.027 77.5692L214.068 78.3526L214.11 79.1361L214.738 79.3306C215.083 79.4376 215.908 79.528 216.572 79.5314C217.609 79.537 217.888 79.4853 218.552 79.163C219.742 78.5859 220.23 77.5446 219.895 76.3005C219.672 75.4752 218.871 74.746 217.285 73.9231C215.744 73.1238 215.234 72.5971 215.344 71.9191C215.44 71.3355 215.657 71.0694 216.232 70.831C217.032 70.4998 218.131 70.6026 219.374 71.1251C219.588 71.2149 219.618 71.1412 219.618 70.5281C219.618 69.8376 219.611 69.8268 219.095 69.6847C218.356 69.4813 216.582 69.5154 215.931 69.7454ZM197.504 70.1704C197.119 71.0836 193.961 79.2038 193.961 79.2801C193.961 79.321 194.267 79.3545 194.642 79.3545H195.323L195.788 78.0412L196.254 76.7278H198.284H200.313L200.783 78.0066C201.042 78.7099 201.298 79.3358 201.353 79.3973C201.407 79.459 201.739 79.4901 202.089 79.4665L202.726 79.4236L200.868 74.5851L199.01 69.7465L198.364 69.7042C197.738 69.6631 197.712 69.6771 197.504 70.1704ZM204.001 74.5159V79.3545H204.628H205.256V75.3913V71.4281L207.856 75.4604L210.457 79.4927H211.203H211.949V74.5851V69.6774H211.323H210.698L210.661 73.6102L210.624 77.5429L208.116 73.6102L205.607 69.6774H204.804H204.001V74.5159ZM224.535 69.8502C224.572 69.9453 225.178 72.0137 225.883 74.4468C226.587 76.8799 227.195 78.9796 227.235 79.1126C227.291 79.3035 227.461 79.3545 228.041 79.3545H228.775L229.79 75.8638C230.349 73.9439 230.845 72.3003 230.894 72.2114C230.943 72.1224 231.448 73.7242 232.017 75.7712L233.051 79.4927H233.767H234.482L235.884 74.6196L237.286 69.7465L236.664 69.7038C236.322 69.6803 236.012 69.6909 235.975 69.7274C235.938 69.7641 235.426 71.5611 234.838 73.7209L233.769 77.648L232.873 74.3193C231.486 69.1685 231.691 69.6774 230.996 69.6774H230.403L229.228 73.6858C228.583 75.8905 228.032 77.5856 228.005 77.4529C227.958 77.2207 226.1 70.4137 225.948 69.9193C225.89 69.7306 225.719 69.6774 225.171 69.6774C224.667 69.6774 224.487 69.726 224.535 69.8502ZM238.721 74.6542V79.4927H239.675C240.2 79.4927 241.392 79.5334 242.325 79.5831L244.02 79.6734V79.0302V78.3868H241.998H239.976V76.797V75.2072H241.719H243.462V74.6542V74.1012L242.033 74.0993C239.843 74.0964 239.976 74.205 239.976 72.4261V70.9216H241.859H243.741V70.3686V69.8156H241.231H238.721V74.6542ZM248.12 70.3086C247.736 71.2218 244.578 79.342 244.578 79.4184C244.578 79.4593 244.884 79.4927 245.258 79.4927H245.939L246.405 78.1794L246.87 76.8661H248.9H250.93L251.4 78.1448C251.658 78.8481 251.915 79.4741 251.969 79.5356C252.024 79.5972 252.355 79.6284 252.705 79.6047L253.342 79.5619L251.484 74.7233L249.627 69.8847L248.981 69.8424C248.354 69.8014 248.328 69.8153 248.12 70.3086ZM254.757 74.6542V79.4927H255.384H256.012V77.4882V75.4836L256.674 75.4842C257.741 75.485 258.095 75.8004 259.306 77.8276L260.383 79.631H261.134C261.695 79.631 261.859 79.5874 261.784 79.4582C260.984 78.0839 259.48 75.7654 259.18 75.4449C258.967 75.2172 258.81 75.024 258.831 75.0154C259.93 74.5755 260.558 73.8471 260.696 72.8509C260.88 71.5177 260.173 70.3365 258.978 69.9817C258.667 69.889 257.61 69.8156 256.588 69.8156H254.757V74.6542ZM258.438 71.1143C259.082 71.381 259.358 71.8275 259.358 72.6007C259.358 73.7863 258.479 74.3777 256.717 74.3777H256.012V72.6496V70.9216H256.992C257.532 70.9216 258.182 71.0083 258.438 71.1143ZM199.817 75.5182C199.817 75.5753 199.127 75.6219 198.284 75.6219C197.44 75.6219 196.75 75.5815 196.75 75.5322C196.75 75.4597 197.443 73.5533 198.175 71.6128C198.29 71.3095 198.398 71.5213 199.061 73.3409C199.477 74.4814 199.817 75.4611 199.817 75.5182ZM250.434 75.6565C250.434 75.7135 249.744 75.7601 248.9 75.7601C248.057 75.7601 247.366 75.7198 247.366 75.6704C247.366 75.598 248.06 73.6916 248.792 71.751C248.906 71.4477 249.015 71.6595 249.678 73.4791C250.094 74.6196 250.434 75.5994 250.434 75.6565Z" fill="#DBB115"></path><path fill-rule="evenodd" clip-rule="evenodd" d="M171.442 19.7935C170.789 20.1501 170.24 20.8233 170.053 21.4971C169.947 21.8784 169.819 22.9356 169.767 23.8462C169.716 24.7568 169.615 25.6122 169.542 25.747C169.373 26.06 168.965 26.0615 168.696 25.7502C168.43 25.4429 167.888 24.3087 167.881 24.0476C167.875 23.7686 167.187 22.8193 166.77 22.5151C166.573 22.371 166.057 22.223 165.581 22.1744C164.439 22.0574 164.331 22.195 164.451 23.6106C164.799 27.6999 164.887 28.0887 165.617 28.7736C166.567 29.6645 167.091 29.884 168.911 30.1529C170.984 30.4594 172.768 30.4775 174.792 30.2123C176.439 29.9965 177.133 29.7997 177.96 29.3139C178.704 28.8766 179.328 27.5409 179.477 26.064C179.539 25.4542 179.654 24.5317 179.734 24.014C179.986 22.3786 179.78 22.1234 178.319 22.2619C177.542 22.3356 177.426 22.3905 176.999 22.8887C176.742 23.189 176.337 23.9323 176.099 24.5406C175.586 25.8538 175.486 25.9921 175.047 25.9921C174.573 25.9921 174.489 25.6613 174.408 23.4971C174.334 21.5115 174.272 21.2991 173.533 20.4852C172.817 19.6959 172.072 19.4494 171.442 19.7935ZM104.79 31.0516C104.003 31.2621 102.044 32.2033 101.084 32.8321C99.6251 33.7879 98.7878 34.7661 97.6995 36.7868L96.9114 38.2501V42.6987C96.9114 45.1455 96.9634 47.2554 97.0268 47.3874C97.5488 48.4718 98.1089 49.575 98.1667 49.6319C98.2052 49.67 98.4113 49.9563 98.6247 50.2683C99.3795 51.3723 102.008 53.1663 103.391 53.5209C103.7 53.6002 104.668 53.7645 105.541 53.8861L107.13 54.1072L107.389 53.7896C107.716 53.3889 107.743 52.1776 107.434 51.7404C107.316 51.5737 106.971 51.3633 106.667 51.273C106.363 51.1828 106.114 51.0254 106.114 50.9234C106.114 50.8214 106.058 50.7379 105.989 50.7379C105.92 50.7379 105.787 50.423 105.694 50.0381C105.566 49.5107 105.548 47.7309 105.618 42.8148C105.709 36.487 105.757 35.2125 105.925 34.6324C106.04 34.2391 106.822 33.4573 107.102 33.4573C107.754 33.4573 108.066 31.6592 107.509 31.1072C107.285 30.8849 107.059 30.834 106.358 30.8478C105.879 30.8572 105.173 30.949 104.79 31.0516ZM130.531 31.0703C130.321 31.2407 130.209 31.5233 130.159 32.0058C130.082 32.7643 130.165 32.9262 130.902 33.4388C131.818 34.0764 131.786 33.7247 131.742 42.6662L131.701 50.7624L130.935 51.4293C130.174 52.0902 130.168 52.1028 130.168 52.8796C130.168 53.7997 130.448 54.1217 131.144 54.0002C131.374 53.96 132.095 53.8582 132.747 53.774C134.038 53.6074 134.799 53.2831 136.448 52.1961C137.449 51.5368 137.875 51.1178 138.637 50.0467C138.88 49.7045 139.163 49.339 139.267 49.2345C139.371 49.13 139.582 48.7567 139.737 48.405C139.892 48.0533 140.134 47.5129 140.273 47.2039C140.806 46.0256 141.002 44.5044 140.931 42.1196C140.894 40.8909 140.8 39.5747 140.722 39.1945C140.541 38.3094 139.638 36.4322 138.908 35.4244C138.73 35.1789 138.636 34.9771 138.699 34.9759C138.762 34.9747 138.748 34.9281 138.67 34.8723C138.591 34.8164 138.321 34.509 138.07 34.1892C137.622 33.6177 136.077 32.5019 135.118 32.0568C133.277 31.2021 132.854 31.0665 131.546 30.9109C130.981 30.8437 130.769 30.877 130.531 31.0703ZM108.555 31.2109C108.354 31.7 108.347 32.8167 108.542 33.1127C108.649 33.2736 109.009 33.486 109.342 33.5844C110.173 33.8298 110.854 34.3545 111.705 35.4038C112.474 36.3536 112.774 36.9434 113.307 38.5566C113.747 39.8864 114.146 40.2534 115.094 40.2003C115.658 40.1688 115.829 40.0939 116.07 39.7722C116.349 39.4017 116.365 39.193 116.404 35.6083L116.445 31.8342L116.078 31.4016C115.498 30.7179 114.458 30.8084 113.71 31.6078C113.351 31.9919 113.037 32.0177 112.321 31.7211C111.553 31.4029 109.745 30.9735 109.162 30.971C108.808 30.9696 108.624 31.0421 108.555 31.2109ZM126.821 31.2388C126.284 31.379 125.248 31.7761 124.518 32.1216C121.965 33.3304 120.499 35.1082 119.201 38.5724C118.765 39.7361 118.761 39.7736 118.747 42.4432C118.734 45.0502 118.747 45.1799 119.134 46.3832C119.355 47.0675 119.694 47.9073 119.888 48.2495C120.082 48.5916 120.311 48.996 120.397 49.1481C121.05 50.3038 121.912 51.2457 123.232 52.2478C124.025 52.8494 126.018 53.6414 127.156 53.8066C127.662 53.8802 128.264 53.9673 128.494 54.0002C129.216 54.1039 129.476 53.7686 129.438 52.7804C129.419 52.2714 129.335 51.8918 129.229 51.8307C128.516 51.4204 128.173 51.0405 128.027 50.499C127.916 50.0851 127.867 47.6046 127.867 42.3376C127.867 33.7535 127.81 34.2015 129.017 33.3196C129.646 32.8603 129.68 32.8025 129.68 32.1789C129.68 30.9497 128.905 30.6951 126.821 31.2388ZM198.013 31.3917C197.442 31.5399 196.721 31.7813 196.41 31.9281C196.098 32.0749 195.498 32.3445 195.076 32.5269C194.654 32.7094 193.87 33.233 193.333 33.6901C192.797 34.1474 192.291 34.4986 192.21 34.4707C191.861 34.35 190.359 36.5315 189.874 37.8646C189.316 39.3977 189.233 39.7072 189.068 40.854C188.889 42.099 188.978 45.3553 189.227 46.6597C189.445 47.8082 190.622 50.1223 191.393 50.9195C191.737 51.2759 192.084 51.5674 192.163 51.5674C192.243 51.5674 192.601 51.8082 192.96 52.1024C194.315 53.2137 195.749 53.7924 197.993 54.133C199.713 54.3942 200.005 54.3851 200.301 54.0607C200.498 53.8449 200.537 53.6188 200.489 52.9599C200.419 52.0023 200.163 51.6365 199.474 51.5083C198.943 51.4095 198.786 51.2531 198.63 50.6688C198.57 50.4407 198.536 46.9763 198.555 42.9699C198.595 34.6522 198.586 34.7245 199.703 33.978C200.537 33.4207 200.627 33.2804 200.633 32.5214C200.64 31.5749 200.282 31.1041 199.563 31.1148C199.281 31.1189 198.584 31.2436 198.013 31.3917ZM201.429 31.5527C201.103 32.0149 201.142 33.1922 201.496 33.5695C201.653 33.7359 201.85 33.8721 201.936 33.8721C202.021 33.8721 202.428 34.0359 202.841 34.2361C204.33 34.9585 205.704 36.9546 206.353 39.341C206.585 40.1911 207.062 40.561 207.927 40.561C208.497 40.561 208.691 40.499 208.892 40.2519C209.27 39.7892 209.324 39.1053 209.275 35.346L209.23 31.9123L208.839 31.5789C208.567 31.3474 208.278 31.2454 207.893 31.2454C207.425 31.2454 207.259 31.3313 206.826 31.7984C206.544 32.1025 206.187 32.3514 206.033 32.3514C205.783 32.3514 204.985 32.1079 204.21 31.7948C202.683 31.1781 201.751 31.0969 201.429 31.5527ZM223.151 31.4088C222.805 31.5749 222.69 31.901 222.688 32.7295C222.686 33.2684 222.74 33.3563 223.369 33.8354C223.745 34.1217 224.114 34.4812 224.188 34.6342C224.366 35.0006 224.25 49.864 224.062 50.8387C223.94 51.4669 223.846 51.6119 223.343 51.9468C222.637 52.4171 222.428 52.9817 222.668 53.7742C222.769 54.11 222.94 54.3498 223.118 54.4058C223.605 54.559 227.184 53.7806 227.37 53.4811C227.41 53.4169 227.555 53.3645 227.693 53.3645C228.163 53.3645 230.796 51.2596 231.065 50.6688C231.214 50.3403 231.43 49.9933 231.846 49.4091C232.271 48.812 233.134 46.9566 233.237 46.4161C233.284 46.1699 233.379 45.859 233.448 45.7253C233.517 45.5915 233.576 44.4095 233.58 43.0986C233.586 41.0373 233.546 40.5844 233.287 39.7475C232.954 38.675 232.693 38.0204 232.351 37.3973C232.104 36.9484 231.45 35.7509 231.033 34.9834C230.89 34.7202 230.773 34.5544 230.773 34.615C230.773 34.6755 230.412 34.3735 229.971 33.9437C228.439 32.4501 224.236 30.8882 223.151 31.4088ZM143.19 31.5906C142.23 32.1079 142.228 33.1012 143.186 33.5859C144.265 34.1321 144.188 33.3947 144.148 42.7286L144.112 51.077L143.433 51.4326C142.639 51.8488 142.369 52.168 142.369 52.6903C142.369 53.1811 142.957 53.6047 143.856 53.7613C144.227 53.8259 146.313 53.8683 148.492 53.8557L152.454 53.8328L152.675 53.5031C152.871 53.2107 152.901 51.9643 152.939 42.5213L152.982 31.8695L152.68 31.6266C152.405 31.4061 151.971 31.3842 147.966 31.3892C144.431 31.3936 143.482 31.4337 143.19 31.5906ZM167.259 31.5121C166.386 31.7208 165.934 32.137 165.934 32.7311C165.934 33.0145 166.615 33.7338 166.883 33.7338C166.974 33.7338 167.049 33.796 167.049 33.8721C167.049 33.9481 167.141 34.0103 167.254 34.0103C167.366 34.0103 167.523 34.1306 167.602 34.2777C167.697 34.4534 167.747 37.3492 167.747 42.7197C167.747 48.0902 167.697 50.986 167.602 51.1617C167.517 51.32 167.311 51.4291 167.098 51.4291C166.664 51.4291 165.794 52.3067 165.794 52.7453C165.794 53.1526 166.309 53.5751 167.012 53.7446C168.003 53.9835 176.203 54.0974 176.974 53.883C177.533 53.7276 178.205 53.1093 178.205 52.7503C178.205 52.352 177.632 51.7341 177.088 51.5463C176.847 51.463 176.638 51.2754 176.597 51.1042C176.557 50.9408 176.541 47.0754 176.562 42.5144L176.601 34.2218L177.25 33.9163C177.957 33.5836 178.344 33.1479 178.344 32.6851C178.344 32.3472 177.734 31.6868 177.254 31.5056C176.872 31.3611 167.865 31.3669 167.259 31.5121ZM218.978 31.7106C218.114 31.9116 217.425 32.179 216.816 32.5488C215.493 33.353 214.373 34.2336 213.939 34.8117C213.727 35.0933 213.522 35.3547 213.484 35.3929C213.205 35.6662 211.674 38.7681 211.672 39.0631C211.671 39.2191 211.614 39.4057 211.546 39.4779C211.155 39.8933 210.969 43.6689 211.26 45.2864C211.769 48.122 213.809 51.4507 215.725 52.5732C217.704 53.7324 218.318 53.9757 219.827 54.1991C220.287 54.2673 220.821 54.3598 221.012 54.4048C221.536 54.5276 221.867 54.2044 221.945 53.4943C222.032 52.7069 221.826 52.1904 221.334 51.9587C221.104 51.8508 220.815 51.5176 220.635 51.1526C220.328 50.5341 220.327 50.4859 220.321 42.8856C220.314 34.0768 220.226 34.7105 221.605 33.6778C222.071 33.3292 222.128 33.2194 222.128 32.6757C222.128 32.3399 222.027 31.9118 221.903 31.7244C221.709 31.4311 221.578 31.3859 220.962 31.3996C220.568 31.4083 219.675 31.5483 218.978 31.7106ZM153.768 31.6712C153.583 31.7779 153.524 31.9935 153.524 32.5585C153.524 33.3882 153.783 33.7833 154.602 34.2003C155.562 34.6888 155.541 34.5113 155.587 42.6153C155.635 50.9157 155.67 50.6244 154.552 51.1612C153.664 51.5874 153.524 51.7715 153.524 52.5142C153.524 53.5025 153.789 53.7793 154.736 53.7793C156.868 53.7793 158.435 53.2385 160.268 51.8696C161.193 51.1785 162.727 49.6659 162.727 49.4446C162.727 49.3695 162.813 49.2099 162.919 49.0899C163.134 48.8446 163.946 46.6782 164.14 45.8302C164.532 44.1169 164.662 41.4628 164.411 40.3271C164.341 40.0083 164.209 39.3828 164.119 38.9371C164.029 38.4915 163.618 37.4603 163.207 36.6459C162.581 35.4053 162.319 35.0433 161.596 34.4148C161.121 34.0023 160.66 33.6025 160.573 33.5265C160.486 33.4504 160.316 33.326 160.196 33.25C160.075 33.1739 159.815 32.9981 159.617 32.8593C158.334 31.959 154.587 31.198 153.768 31.6712ZM236.49 31.7542C235.656 31.8392 235.435 31.919 235.05 32.2723C234.338 32.9269 234.708 33.6158 236.159 34.3345C236.838 34.6713 237.292 35.1923 237.5 35.8766C237.546 36.0287 237.782 36.6508 238.024 37.2591C238.266 37.8673 238.555 38.6914 238.667 39.0904C238.778 39.4895 239.154 40.516 239.502 41.3714C239.851 42.227 240.314 43.4559 240.532 44.1022C240.983 45.4419 241.494 46.7899 241.893 47.6965C242.044 48.0387 242.274 48.6919 242.404 49.1481C242.667 50.0696 243.419 52.0026 244.035 53.338L244.437 54.21L245.016 54.1675C245.743 54.1141 245.977 53.818 246.472 52.3277C246.675 51.7194 246.896 51.1138 246.964 50.9818C247.032 50.8497 247.088 50.6435 247.088 50.5236C247.088 50.3142 248.09 47.2292 248.343 46.6597C248.467 46.3819 249.034 44.7887 249.696 42.858C249.981 42.0256 250.065 41.4625 250.121 40.0027C250.159 39.0025 250.146 37.8325 250.092 37.4026C249.995 36.6284 249.99 36.6215 249.559 36.6636C249.154 36.7032 249.1 36.7756 248.758 37.7429C248.323 38.9731 248.075 39.4594 247.948 39.333C247.896 39.2821 247.851 39.199 247.848 39.1484C247.835 38.979 247.615 38.3707 247.364 37.812C246.95 36.8919 246.084 34.6638 245.941 34.1486C245.697 33.2739 245.019 31.9588 244.735 31.8081C244.475 31.6701 237.746 31.6261 236.49 31.7542ZM251.131 31.9767C250.807 32.1386 250.776 32.2437 250.694 33.4608C250.645 34.1812 250.598 38.5111 250.589 43.083C250.577 49.5524 250.535 51.4257 250.399 51.5324C250.303 51.6079 249.999 51.7417 249.723 51.8299C248.565 52.1991 248.254 53.272 249.135 53.8583C249.754 54.2702 250.448 54.317 255.524 54.2883C259.71 54.2646 260.012 54.2463 260.404 53.9898C260.952 53.6315 261.027 53.5151 261.029 53.0105C261.032 52.5089 260.648 52.058 259.985 51.7832C259.661 51.6491 259.476 51.4628 259.411 51.2038C259.274 50.6623 259.485 34.9842 259.633 34.71C259.7 34.5853 259.932 34.3952 260.149 34.2876C260.855 33.9375 261.171 33.574 261.171 33.1117C261.171 32.5648 260.693 32.096 259.964 31.9284C259.093 31.7279 251.547 31.7691 251.131 31.9767ZM237.533 40.1309C237.484 40.3892 237.433 42.5859 237.42 45.0125C237.397 49.3245 237.389 49.446 237.053 50.3692C236.747 51.2089 236.639 51.3538 236.077 51.6715C235.157 52.1914 234.972 52.3808 234.873 52.9051C234.68 53.9215 235.555 54.1894 239.111 54.2031C241.845 54.2138 242.296 54.0893 242.536 53.2595C242.708 52.6661 242.432 52.2723 241.463 51.7306C240.119 50.9784 240.116 50.967 240.116 47.4137V44.3394L239.481 42.7346C239.132 41.8521 238.762 40.9433 238.658 40.7152C238.555 40.4871 238.447 40.176 238.42 40.0239C238.387 39.843 238.241 39.7327 237.996 39.7045C237.668 39.6669 237.61 39.7202 237.533 40.1309ZM114.539 46.8575C114.11 47.0375 113.502 47.8121 113.405 48.3034C113.302 48.8239 111.581 50.5873 110.855 50.9161C110.587 51.0377 110.068 51.1789 109.703 51.2299C109.338 51.2811 108.883 51.4445 108.692 51.5933C108.392 51.8278 108.345 51.9743 108.345 52.6924C108.345 53.7997 108.498 54.057 109.152 54.0508C110.231 54.0405 111.678 53.5802 112.627 52.945C112.964 52.7195 113.278 52.5351 113.324 52.5351C113.577 52.5351 114.416 51.7167 115.173 50.7335C116.49 49.0214 116.74 48.0355 116.049 47.2836C115.639 46.837 115.011 46.6598 114.539 46.8575ZM207.417 47.2417C206.974 47.3508 206.701 47.6617 206.436 48.3599C206.202 48.9753 205.378 50.1007 204.768 50.6375C204.196 51.1409 203.178 51.5674 202.549 51.5674C201.621 51.5674 201.201 51.9778 201.121 52.9654C201.071 53.578 201.112 53.7971 201.327 54.0606L201.596 54.3899L202.889 54.2085C204.534 53.9776 204.833 53.87 205.925 53.1132C207.106 52.2947 207.793 51.5725 208.526 50.3783C209.195 49.2889 209.367 48.732 209.229 48.1065C209.09 47.4807 208.19 47.0513 207.417 47.2417ZM182.484 47.8845C181.271 48.2247 180.157 49.7129 180.157 50.9918C180.157 52.7028 182.061 54.3354 184.051 54.3307C186.423 54.3252 188.471 52.3233 187.975 50.496C187.68 49.4107 186.976 48.4726 186.141 48.0536C185.496 47.7298 183.384 47.6321 182.484 47.8845ZM184.451 73.168C184.406 76.2483 184.361 76.8828 184.153 77.365C183.843 78.0803 183.43 78.3074 182.605 78.2154L181.969 78.1443V78.734C181.969 79.2924 181.994 79.3284 182.432 79.4098C183.485 79.6055 184.56 79.1173 185.105 78.1957C185.592 77.3716 185.728 76.155 185.731 72.6151L185.734 69.5391H185.119H184.503L184.451 73.168ZM187.965 74.3777V79.2162H188.919C189.444 79.2162 190.637 79.2569 191.569 79.3067L193.264 79.3969V78.7537V78.1103H191.242H189.22V76.5205V74.9307H190.963H192.706V74.3777V73.8247L191.277 73.8228C189.087 73.8199 189.22 73.9285 189.22 72.1496V70.6451H191.103H192.985V70.0921V69.5391H190.475H187.965V74.3777ZM215.931 69.7454C214.718 70.174 214.04 71.0036 214.04 72.0617C214.04 73.385 214.571 73.983 216.735 75.1C218.136 75.8237 218.642 76.3152 218.642 76.955C218.642 77.2203 218.578 77.5562 218.499 77.7015C218.034 78.5637 216.023 78.666 214.626 77.8986L214.027 77.5692L214.068 78.3526L214.11 79.1361L214.738 79.3306C215.083 79.4376 215.908 79.528 216.572 79.5314C217.61 79.537 217.888 79.4853 218.552 79.163C219.742 78.5858 220.23 77.5446 219.895 76.3005C219.672 75.4752 218.871 74.746 217.285 73.9231C215.744 73.1238 215.234 72.5971 215.344 71.9192C215.44 71.3355 215.657 71.0694 216.232 70.831C217.032 70.4998 218.131 70.6026 219.374 71.1251C219.588 71.2149 219.618 71.1412 219.618 70.5281C219.618 69.8376 219.611 69.8268 219.095 69.6847C218.356 69.4813 216.582 69.5154 215.931 69.7454ZM197.504 70.1704C197.119 71.0836 193.961 79.2038 193.961 79.2801C193.961 79.321 194.268 79.3545 194.642 79.3545H195.323L195.788 78.0412L196.254 76.7278H198.284H200.313L200.784 78.0066C201.042 78.7099 201.298 79.3358 201.353 79.3973C201.407 79.459 201.739 79.4901 202.089 79.4665L202.726 79.4236L200.868 74.5851L199.01 69.7465L198.364 69.7042C197.738 69.6631 197.712 69.6771 197.504 70.1704ZM204.001 74.5159V79.3545H204.628H205.256V75.3913V71.4281L207.856 75.4604L210.457 79.4927H211.203H211.949V74.5851V69.6774H211.323H210.698L210.661 73.6102L210.624 77.5429L208.116 73.6102L205.607 69.6774H204.804H204.001V74.5159ZM224.535 69.8502C224.572 69.9453 225.178 72.0137 225.883 74.4468C226.587 76.8799 227.195 78.9796 227.235 79.1126C227.291 79.3035 227.461 79.3545 228.041 79.3545H228.775L229.79 75.8638C230.349 73.9439 230.845 72.3003 230.894 72.2114C230.943 72.1224 231.448 73.7242 232.017 75.7712L233.051 79.4927H233.767H234.482L235.884 74.6196L237.286 69.7465L236.664 69.7038C236.322 69.6803 236.012 69.6909 235.975 69.7274C235.938 69.7641 235.427 71.5611 234.838 73.7209L233.769 77.648L232.873 74.3193C231.486 69.1685 231.692 69.6774 230.996 69.6774H230.403L229.228 73.6858C228.583 75.8905 228.032 77.5857 228.005 77.4529C227.958 77.2207 226.1 70.4137 225.948 69.9193C225.89 69.7306 225.719 69.6774 225.171 69.6774C224.667 69.6774 224.487 69.726 224.535 69.8502ZM238.721 74.6542V79.4927H239.675C240.2 79.4927 241.392 79.5334 242.325 79.5831L244.02 79.6734V79.0302V78.3868H241.998H239.976V76.797V75.2072H241.719H243.462V74.6542V74.1012L242.033 74.0993C239.843 74.0964 239.976 74.205 239.976 72.4261V70.9216H241.859H243.741V70.3686V69.8156H241.231H238.721V74.6542ZM248.121 70.3086C247.736 71.2218 244.578 79.342 244.578 79.4184C244.578 79.4593 244.884 79.4927 245.258 79.4927H245.939L246.405 78.1794L246.87 76.8661H248.9H250.93L251.4 78.1448C251.659 78.8481 251.915 79.4741 251.969 79.5356C252.024 79.5972 252.355 79.6283 252.705 79.6047L253.342 79.5619L251.484 74.7233L249.627 69.8847L248.981 69.8424C248.354 69.8014 248.328 69.8153 248.121 70.3086ZM254.757 74.6542V79.4927H255.384H256.012V77.4882V75.4836L256.674 75.4842C257.741 75.485 258.095 75.8004 259.306 77.8276L260.383 79.631H261.134C261.695 79.631 261.859 79.5874 261.784 79.4582C260.984 78.0839 259.48 75.7654 259.18 75.4449C258.967 75.2172 258.81 75.024 258.831 75.0154C259.93 74.5755 260.558 73.8471 260.696 72.8509C260.88 71.5177 260.173 70.3365 258.978 69.9816C258.667 69.889 257.61 69.8156 256.588 69.8156H254.757V74.6542ZM258.438 71.1143C259.082 71.381 259.358 71.8275 259.358 72.6007C259.358 73.7863 258.479 74.3777 256.717 74.3777H256.012V72.6496V70.9216H256.992C257.532 70.9216 258.182 71.0083 258.438 71.1143ZM199.817 75.5182C199.817 75.5753 199.127 75.6219 198.284 75.6219C197.44 75.6219 196.75 75.5815 196.75 75.5322C196.75 75.4597 197.443 73.5533 198.175 71.6128C198.29 71.3095 198.398 71.5213 199.061 73.3409C199.477 74.4814 199.817 75.4611 199.817 75.5182ZM250.434 75.6564C250.434 75.7135 249.744 75.7601 248.9 75.7601C248.057 75.7601 247.366 75.7198 247.366 75.6704C247.366 75.598 248.06 73.6916 248.792 71.751C248.906 71.4477 249.015 71.6595 249.678 73.4791C250.094 74.6196 250.434 75.5994 250.434 75.6564Z" fill="white"></path></svg>